<mxfile host="app.diagrams.net" modified="2024-02-21T13:26:50.591Z" agent="Mozilla/5.0 (Windows NT 10.0; Win64; x64) AppleWebKit/537.36 (KHTML, like Gecko) Chrome/121.0.0.0 Safari/537.36" version="22.1.18" etag="AnaCWoo-iDV1F5ghnhS8" type="github">
  <diagram name="第 1 页" id="7WLCvFdmRQFA8rgle5X_">
    <mxGraphModel>
      <root>
        <mxCell id="0" />
        <mxCell id="1" parent="0" />
      </root>
    </mxGraphModel>
  </diagram>
</mxfile>
